<svg width="15" height="11" viewBox="0 0 15 11" fill="none" xmlns="http://www.w3.org/2000/svg">
<path d="M13.8438 3.97266C13.2148 4.46484 12.4219 5.06641 9.63281 7.08984C9.08594 7.5 8.07422 8.40234 7.11719 8.40234C6.13281 8.40234 5.14844 7.5 4.57422 7.08984C1.78516 5.06641 0.992188 4.46484 0.363281 3.97266C0.253906 3.89062 0.117188 3.97266 0.117188 4.10938V9.6875C0.117188 10.4258 0.691406 11 1.42969 11H12.8047C13.5156 11 14.1172 10.4258 14.1172 9.6875V4.10938C14.1172 3.97266 13.9531 3.89062 13.8438 3.97266ZM7.11719 7.5C7.74609 7.52734 8.64844 6.70703 9.11328 6.37891C12.75 3.75391 13.0234 3.50781 13.8438 2.85156C14.0078 2.74219 14.1172 2.55078 14.1172 2.33203V1.8125C14.1172 1.10156 13.5156 0.5 12.8047 0.5H1.42969C0.691406 0.5 0.117188 1.10156 0.117188 1.8125V2.33203C0.117188 2.55078 0.199219 2.74219 0.363281 2.85156C1.18359 3.50781 1.45703 3.75391 5.09375 6.37891C5.55859 6.70703 6.46094 7.52734 7.11719 7.5Z" fill="#E8C300"/>
</svg>
