<svg width="18" height="19" viewBox="0 0 18 19" fill="none" xmlns="http://www.w3.org/2000/svg">
<path d="M9 5.00781C8.19271 5.00781 7.4375 5.21615 6.73438 5.63281C6.05729 6.02344 5.51042 6.57031 5.09375 7.27344C4.70312 7.95052 4.50781 8.69271 4.50781 9.5C4.50781 10.3073 4.70312 11.0625 5.09375 11.7656C5.51042 12.4427 6.05729 12.9896 6.73438 13.4062C7.4375 13.7969 8.19271 13.9922 9 13.9922C9.80729 13.9922 10.5495 13.7969 11.2266 13.4062C11.9297 12.9896 12.4766 12.4427 12.8672 11.7656C13.2839 11.0625 13.4922 10.3073 13.4922 9.5C13.4922 8.69271 13.2839 7.95052 12.8672 7.27344C12.4766 6.57031 11.9297 6.02344 11.2266 5.63281C10.5495 5.21615 9.80729 5.00781 9 5.00781ZM9 12.4297C8.19271 12.4297 7.5026 12.1432 6.92969 11.5703C6.35677 10.9974 6.07031 10.3073 6.07031 9.5C6.07031 8.69271 6.35677 8.0026 6.92969 7.42969C7.5026 6.85677 8.19271 6.57031 9 6.57031C9.80729 6.57031 10.4974 6.85677 11.0703 7.42969C11.6432 8.0026 11.9297 8.69271 11.9297 9.5C11.9297 10.3073 11.6432 10.9974 11.0703 11.5703C10.4974 12.1432 9.80729 12.4297 9 12.4297ZM14.7422 4.8125C14.7161 5.09896 14.599 5.34635 14.3906 5.55469C14.2083 5.76302 13.974 5.86719 13.6875 5.86719C13.401 5.86719 13.1536 5.76302 12.9453 5.55469C12.737 5.34635 12.6328 5.09896 12.6328 4.8125C12.6328 4.52604 12.737 4.27865 12.9453 4.07031C13.1536 3.86198 13.401 3.75781 13.6875 3.75781C13.974 3.75781 14.2214 3.86198 14.4297 4.07031C14.638 4.27865 14.7422 4.52604 14.7422 4.8125ZM17.7109 5.86719C17.6589 5.11198 17.5417 4.46094 17.3594 3.91406C17.125 3.26302 16.7604 2.70312 16.2656 2.23438C15.7969 1.73958 15.237 1.375 14.5859 1.14062C14.0391 0.958333 13.388 0.854167 12.6328 0.828125C11.9036 0.776042 10.6927 0.75 9 0.75C7.30729 0.75 6.08333 0.776042 5.32812 0.828125C4.59896 0.854167 3.96094 0.958333 3.41406 1.14062C2.76302 1.375 2.1901 1.73958 1.69531 2.23438C1.22656 2.70312 0.875 3.26302 0.640625 3.91406C0.458333 4.46094 0.341146 5.11198 0.289062 5.86719C0.263021 6.59635 0.25 7.80729 0.25 9.5C0.25 11.1927 0.263021 12.4167 0.289062 13.1719C0.341146 13.901 0.458333 14.5391 0.640625 15.0859C0.875 15.737 1.22656 16.3099 1.69531 16.8047C2.1901 17.2734 2.76302 17.612 3.41406 17.8203C3.96094 18.0286 4.59896 18.1458 5.32812 18.1719C6.08333 18.224 7.30729 18.25 9 18.25C10.6927 18.25 11.9036 18.224 12.6328 18.1719C13.388 18.1458 14.0391 18.0417 14.5859 17.8594C15.237 17.625 15.7969 17.2734 16.2656 16.8047C16.7604 16.3099 17.125 15.737 17.3594 15.0859C17.5417 14.5391 17.6458 13.901 17.6719 13.1719C17.724 12.4167 17.75 11.1927 17.75 9.5C17.75 7.80729 17.737 6.59635 17.7109 5.86719ZM15.8359 14.6562C15.5234 15.4375 14.9635 15.9974 14.1562 16.3359C13.7396 16.4922 13.0365 16.5964 12.0469 16.6484C11.5 16.6745 10.6927 16.6875 9.625 16.6875H8.375C7.33333 16.6875 6.52604 16.6745 5.95312 16.6484C4.98958 16.5964 4.28646 16.4922 3.84375 16.3359C3.0625 16.0234 2.5026 15.4635 2.16406 14.6562C2.00781 14.2135 1.90365 13.5104 1.85156 12.5469C1.82552 11.974 1.8125 11.1667 1.8125 10.125V8.875C1.8125 7.83333 1.82552 7.02604 1.85156 6.45312C1.90365 5.46354 2.00781 4.76042 2.16406 4.34375C2.47656 3.53646 3.03646 2.97656 3.84375 2.66406C4.28646 2.50781 4.98958 2.40365 5.95312 2.35156C6.52604 2.32552 7.33333 2.3125 8.375 2.3125H9.625C10.6667 2.3125 11.474 2.32552 12.0469 2.35156C13.0365 2.40365 13.7396 2.50781 14.1562 2.66406C14.9635 2.97656 15.5234 3.53646 15.8359 4.34375C15.9922 4.76042 16.0964 5.46354 16.1484 6.45312C16.1745 7 16.1875 7.80729 16.1875 8.875V10.125C16.1875 11.1667 16.1745 11.974 16.1484 12.5469C16.0964 13.5104 15.9922 14.2135 15.8359 14.6562Z" fill="white"/>
</svg>
